<?xml version="1.0" encoding="UTF-8" standalone="no"?>
<svg
   class="svg-icon"
   style="width: 1em; height: 1em;vertical-align: middle;fill: currentColor;overflow: hidden;"
   viewBox="0 0 1024 1024"
   version="1.1"
   id="svg210"
   sodipodi:docname="download.svg"
   inkscape:version="1.2.2 (732a01da63, 2022-12-09)"
   xmlns:inkscape="http://www.inkscape.org/namespaces/inkscape"
   xmlns:sodipodi="http://sodipodi.sourceforge.net/DTD/sodipodi-0.dtd"
   xmlns="http://www.w3.org/2000/svg"
   xmlns:svg="http://www.w3.org/2000/svg">
  <defs
     id="defs214" />
  <sodipodi:namedview
     id="namedview212"
     pagecolor="#ffffff"
     bordercolor="#999999"
     borderopacity="1"
     inkscape:showpageshadow="0"
     inkscape:pageopacity="0"
     inkscape:pagecheckerboard="0"
     inkscape:deskcolor="#d1d1d1"
     showgrid="false"
     inkscape:zoom="0.34457645"
     inkscape:cx="551.40158"
     inkscape:cy="583.32483"
     inkscape:window-width="1486"
     inkscape:window-height="868"
     inkscape:window-x="2754"
     inkscape:window-y="165"
     inkscape:window-maximized="0"
     inkscape:current-layer="svg210" />
  <path
     d="M235.878 846.019c-56.284 0-102.072-45.789-102.072-102.073V588.841c0-14.367 11.689-26.056 26.05-26.056s26.051 11.69 26.051 26.056v148.874c0 37.386 18.79 56.202 56.172 56.202h539.806c37.387 0 56.203-18.816 56.203-56.202V588.841c0-14.367 11.684-26.05 26.05-26.05s26.05 11.683 26.05 26.05v154.793c0 56.453-45.926 102.38-102.379 102.38H235.88z"
     fill="#2C2C2C"
     id="path204"
     style="fill:#378a00;fill-opacity:1" />
  <path
     d="M512 634.85a26.081 26.081 0 0 1-26.05-26.051V160.48a26.081 26.081 0 0 1 26.05-26.05 26.081 26.081 0 0 1 26.05 26.05v448.323A26.076 26.076 0 0 1 512 634.849z"
     fill="#2C2C2C"
     id="path206"
     style="fill:#378a00;fill-opacity:1" />
  <path
     d="M509.783 648.878a25.882 25.882 0 0 1-18.422-7.629L305.756 455.63a25.882 25.882 0 0 1-7.629-18.422c0-6.958 2.714-13.501 7.634-18.422s11.464-7.629 18.422-7.629 13.501 2.709 18.422 7.634l167.188 167.194 171.623-171.628a25.846 25.846 0 0 1 18.242-7.464c7.035 0 13.63 2.76 18.565 7.772 9.928 10.081 9.928 26.485 0 36.572L528.215 641.244a25.907 25.907 0 0 1-18.432 7.634z"
     fill="#2C2C2C"
     id="path208"
     style="fill:#378a00;fill-opacity:1" />
</svg>
