<?xml version="1.0" encoding="UTF-8" standalone="no"?>
<svg
   class="svg-icon"
   style="width: 1em; height: 1em;vertical-align: middle;fill: currentColor;overflow: hidden;"
   viewBox="0 0 1024 1024"
   version="1.1"
   id="svg4"
   sodipodi:docname="save.svg"
   inkscape:version="1.2.2 (732a01da63, 2022-12-09)"
   xmlns:inkscape="http://www.inkscape.org/namespaces/inkscape"
   xmlns:sodipodi="http://sodipodi.sourceforge.net/DTD/sodipodi-0.dtd"
   xmlns="http://www.w3.org/2000/svg"
   xmlns:svg="http://www.w3.org/2000/svg">
  <defs
     id="defs8" />
  <sodipodi:namedview
     id="namedview6"
     pagecolor="#ffffff"
     bordercolor="#999999"
     borderopacity="1"
     inkscape:showpageshadow="0"
     inkscape:pageopacity="0"
     inkscape:pagecheckerboard="0"
     inkscape:deskcolor="#d1d1d1"
     showgrid="false"
     inkscape:zoom="0.97460938"
     inkscape:cx="512"
     inkscape:cy="513.02605"
     inkscape:window-width="1486"
     inkscape:window-height="1214"
     inkscape:window-x="2681"
     inkscape:window-y="119"
     inkscape:window-maximized="0"
     inkscape:current-layer="svg4" />
  <path
     d="m 272.60598,926.87688 h 473.22073 l 0.42825,-283.95403 H 272.60598 Z M 769.80895,233.51192 C 678.59083,127.20872 666.17146,112.36459 655.89336,112.36459 h -66.37938 v 244.21002 c 0,14.84414 -10.70634,27.29406 -24.41048,27.29406 h -316.908 c -13.27588,0 -24.41048,-11.97108 -24.41048,-27.29406 V 112.36459 H 183.9574 c -20.12795,0 -36.4016,18.19603 -36.4016,40.70167 v 733.10893 c 0,22.50563 16.27365,40.70169 36.4016,40.70169 h 39.82762 V 612.27689 c 0,-13.40761 10.70636,-23.94216 24.41048,-23.94216 h 522.46995 c 13.27588,0 24.41048,10.53455 24.41048,23.94216 v 314.59999 h 44.96667 c 20.12795,0 36.4016,-18.19606 36.4016,-40.70169 V 358.96884 c 0,-11.01339 -11.1346,-18.6749 -106.63525,-125.45692 z M 540.69301,112.36459 H 272.60598 v 217.3948 h 268.08703 z m -165.30604,168.5528 c 0,4.30959 -2.9978,8.14034 -7.28033,8.14034 h -34.26033 c -3.85429,0 -7.28031,-3.35191 -7.28031,-8.14034 V 161.2066 c 0,-4.3096 2.99777,-8.14034 7.28031,-8.14034 h 34.26033 c 3.85429,0 7.28033,3.3519 7.28033,8.14034 z"
     id="path2"
     style="fill:#0044aa;stroke-width:0.802203" />
</svg>
