<?xml version="1.0" encoding="UTF-8" standalone="no"?>
<!-- Created with Inkscape (http://www.inkscape.org/) -->

<svg
   width="210mm"
   height="297mm"
   viewBox="0 0 210 297"
   version="1.1"
   id="svg192"
   inkscape:version="1.2.2 (732a01da63, 2022-12-09)"
   sodipodi:docname="logo.svg"
   xmlns:inkscape="http://www.inkscape.org/namespaces/inkscape"
   xmlns:sodipodi="http://sodipodi.sourceforge.net/DTD/sodipodi-0.dtd"
   xmlns="http://www.w3.org/2000/svg"
   xmlns:svg="http://www.w3.org/2000/svg">
  <sodipodi:namedview
     id="namedview194"
     pagecolor="#ffffff"
     bordercolor="#999999"
     borderopacity="1"
     inkscape:showpageshadow="0"
     inkscape:pageopacity="0"
     inkscape:pagecheckerboard="0"
     inkscape:deskcolor="#d1d1d1"
     inkscape:document-units="mm"
     showgrid="false"
     inkscape:zoom="0.914906"
     inkscape:cx="396.76207"
     inkscape:cy="562.35285"
     inkscape:window-width="1486"
     inkscape:window-height="1243"
     inkscape:window-x="62"
     inkscape:window-y="850"
     inkscape:window-maximized="0"
     inkscape:current-layer="layer1" />
  <defs
     id="defs189" />
  <g
     inkscape:label="Warstwa 1"
     inkscape:groupmode="layer"
     id="layer1">
    <path
       style="fill:#000000;stroke-width:0.0846667"
       d="m 83.55097,87.960677 c -0.0224,-0.0621 -0.051,-0.43672 -0.0635,-0.83254 l -0.0227,-0.71967 -0.27516,-0.0265 c -0.20856,-0.0201 -0.27517,-0.067 -0.27517,-0.19368 0,-0.15612 0.0516,-0.16554 0.78317,-0.1428 0.62888,0.0195 0.78316,0.0494 0.78316,0.15135 0,0.0806 -0.10819,0.14245 -0.29633,0.16933 l -0.29633,0.0423 -0.0423,0.79759 c -0.0282,0.53088 -0.0777,0.80928 -0.14812,0.83254 -0.0582,0.0192 -0.12415,-0.0158 -0.14659,-0.0779 z m 1.41337,-0.002 c -0.10737,-0.10736 -0.14835,-1.54454 -0.0513,-1.79754 0.083,-0.2163 0.31816,-0.15515 0.62643,0.16291 l 0.2877,0.29683 0.3156,-0.30818 c 0.49902,-0.48728 0.58155,-0.38526 0.58155,0.7188 0,0.70771 -0.0274,0.93545 -0.11668,0.96971 -0.20945,0.0804 -0.30665,-0.13554 -0.30665,-0.68113 v -0.53593 l -0.25395,0.18775 -0.25396,0.18776 -0.25027,-0.23977 -0.25026,-0.23977 -0.0249,0.66159 c -0.0247,0.65456 -0.10411,0.81614 -0.30329,0.61697 z m -30.113069,-0.17027 c -0.62956,-0.89181 -0.79392,-1.23993 -0.74778,-1.5839 0.0256,-0.19064 0.073,-0.34662 0.10547,-0.34662 0.0786,0 0.25739,-0.78828 0.25739,-1.1347 0,-0.45175 -0.47788,-0.78408 -1.778,-1.23646 -0.44238,-0.15393 -0.88863,-0.35544 -0.99166,-0.4478 l -0.18732,-0.16793 0.28725,-0.22828 c 0.15799,-0.12555 0.73758,-0.41077 1.28799,-0.63383 1.80411,-0.73112 1.98596,-0.91485 2.17929,-2.20181 0.0696,-0.46343 0.11788,-0.85131 0.10725,-0.86194 -0.0106,-0.0106 -0.32334,-0.0457 -0.6949,-0.0779 -0.71904,-0.0623 -0.97282,-0.19155 -0.97061,-0.49435 0.003,-0.43441 0.31159,-0.56812 1.15956,-0.50273 l 0.67123,0.0518 0.43525,-3.08054 c 0.23939,-1.69429 0.84295,-5.96784 1.34124,-9.496761 l 0.90599,-6.416226 0.89233,0.02389 0.89232,0.02389 1.34208,9.479957 c 0.73814,5.21398 1.3591,9.49699 1.37991,9.5178 0.0377,0.0377 1.91112,-0.12382 2.51463,-0.21681 l 0.3175,-0.0489 v -9.33524 -9.335233 l 0.27517,-0.05478 c 0.15134,-0.03013 1.03717,-0.07639 1.9685,-0.102808 1.85762,-0.05269 2.45412,0.02562 3.23925,0.425274 0.53503,0.272341 0.75505,0.524808 0.85681,0.983124 0.26465,1.192084 0.60909,5.948153 0.63132,8.717253 0.0138,1.71786 0.0112,1.74487 -0.21024,2.21724 -0.27989,0.59699 -0.77195,1.09583 -1.38842,1.40755 l -0.4751,0.24024 0.38361,0.24248 c 0.713,0.45069 1.1473,1.28265 1.33913,2.56532 0.0538,0.35982 0.10388,0.66365 0.11125,0.67517 0.0205,0.032 2.09578,-0.58126 2.26414,-0.66907 0.13881,-0.0724 0.14906,-0.5805 0.16933,-8.39281 l 0.0216,-8.31574 0.69799,-0.02458 0.69799,-0.02458 0.0217,6.755581 0.0217,6.755579 0.47096,-0.635 0.47096,-0.635 1.55078,-5.503329 c 1.86458,-6.616915 1.84792,-6.561666 1.97868,-6.561666 0.0573,0 0.36191,0.187847 0.67683,0.417439 0.79375,0.578669 1.217099,0.726237 2.072719,0.722481 l 0.70159,-0.0031 -0.36292,0.183229 c -0.19961,0.100776 -0.68613,0.264497 -1.08116,0.363825 -0.395019,0.09933 -0.784269,0.246861 -0.864979,0.32785 -0.14646,0.146947 -3.46391,10.322471 -3.47158,10.648261 -0.004,0.18859 0.59125,2.16353 0.68093,2.25754 0.0771,0.0808 2.2283,-0.85943 3.877629,-1.6948 0.75154,-0.38064 1.42191,-0.69208 1.48971,-0.69208 0.34929,0 0.53163,0.62053 0.25535,0.86902 -0.26144,0.23514 -2.13361,1.18055 -3.746499,1.89191 -0.86148,0.37996 -1.56142,0.72381 -1.5554,0.76412 0.006,0.0403 0.403,1.35909 0.88221,2.93064 0.81095,2.65944 0.86299,2.87285 0.7515,3.08119 -0.16427,0.30695 -0.56818,0.54483 -1.62984,0.95992 -0.49709,0.19435 -0.9038,0.38547 -0.9038,0.42469 0,0.0392 -0.0204,0.12445 -0.0453,0.18938 -0.056,0.14608 0.35363,0.33764 1.94465,0.90929 1.81011,0.65038 2.106489,0.91869 1.74548,1.5802 -0.0982,0.18002 -0.35254,0.64482 -0.56509,1.0329 -0.21256,0.38807 -0.41143,0.87924 -0.44194,1.09149 -0.099,0.68883 -0.43768,0.6809 -0.81245,-0.019 -0.14642,-0.27345 -0.1529,-0.35015 -0.0595,-0.70381 0.0577,-0.21831 0.17924,-0.54097 0.27016,-0.71703 0.19175,-0.37133 0.19537,-0.41483 0.0717,-0.86034 -0.16903,-0.60881 -0.82756,-1.04537 -2.40963,-1.5974 -1.98951,-0.69419 -1.98294,-0.7554 0.17492,-1.62921 0.60107,-0.2434 1.143,-0.67622 1.143,-0.91287 0,-0.19502 -1.3622,-5.16784 -1.43779,-5.24877 -0.036,-0.0385 -0.47014,0.0738 -0.96482,0.24952 l -0.89939,0.31955 v 2.32282 2.32281 l -0.2955,0.27869 c -0.17559,0.1656 -0.57926,0.38522 -0.99483,0.54125 -2.10841,0.7916 -2.05119,0.76252 -1.97476,1.00333 0.0411,0.12946 0.36316,0.2939 1.2709,0.64886 1.19574,0.46758 1.82529,0.82476 1.97822,1.12238 0.12733,0.24779 0.19211,1.84582 0.0794,1.95853 -0.14296,0.14296 -1.45601,0.12864 -1.57704,-0.0172 -0.0629,-0.0758 -0.0768,-0.32944 -0.0412,-0.75097 0.1179,-1.39482 0.0133,-1.507 -2.31162,-2.47929 -0.96593,-0.40395 -1.13099,-0.62991 -0.63996,-0.8761 0.17347,-0.087 0.63925,-0.26035 1.03506,-0.38529 0.91817,-0.28982 1.5974,-0.63828 1.81702,-0.93216 0.16067,-0.21499 0.17442,-0.37207 0.19814,-2.2641 l 0.0255,-2.0331 -0.19482,0.0658 c -0.10716,0.0362 -0.61393,0.18623 -1.12616,0.33344 -0.82566,0.23728 -0.93473,0.29067 -0.96127,0.47046 -0.0165,0.11155 0.014,0.86745 0.0677,1.67978 0.0927,1.40184 0.0895,1.48797 -0.0627,1.69333 -0.23237,0.31351 -0.69863,0.55367 -1.75311,0.90299 -0.51224,0.16969 -1.01701,0.38648 -1.12171,0.48176 -0.17535,0.15956 -0.17973,0.18499 -0.0555,0.32223 0.0742,0.0819 0.46462,0.28114 0.8677,0.44264 0.82157,0.3292 1.93491,0.85758 2.13375,1.01266 0.27079,0.2112 0.41952,0.52949 0.42247,0.90409 0.002,0.21083 0.0546,0.59901 0.11761,0.86262 0.0826,0.34567 0.0889,0.505 0.0224,0.5715 -0.0525,0.0525 -0.41227,0.0922 -0.83532,0.0922 -0.69865,0 -0.75139,-0.0126 -0.8814,-0.21105 -0.0857,-0.13079 -0.11831,-0.29065 -0.0857,-0.42036 0.0289,-0.11512 0.0271,-0.48284 -0.004,-0.81714 -0.0886,-0.953 -0.39563,-1.2187 -2.23833,-1.93682 -0.46111,-0.1797 -0.93471,-0.4025 -1.05245,-0.49512 l -0.21407,-0.16838 0.21019,-0.16533 c 0.11559,-0.0909 0.56408,-0.29115 0.99663,-0.44492 0.9246,-0.32871 1.85022,-0.77373 2.01017,-0.96645 0.0903,-0.10886 0.10102,-0.43182 0.0527,-1.59351 -0.0333,-0.80135 -0.0783,-1.4747 -0.0999,-1.49633 -0.0216,-0.0216 -0.3333,0.0239 -0.69257,0.1013 -0.35928,0.0773 -1.21521,0.2451 -1.90207,0.37277 l -1.24883,0.23213 -3.4e-4,0.97777 c -2.6e-4,0.8018 -0.0285,1.02398 -0.15688,1.23451 -0.19008,0.3117 -0.84359,0.66293 -2.04414,1.09862 -0.48895,0.17745 -0.97597,0.40057 -1.08226,0.49583 l -0.19327,0.17319 0.3081,0.18594 c 0.16946,0.10227 0.71362,0.32716 1.20927,0.49976 1.00231,0.34903 1.4777,0.59491 1.78388,0.92267 0.18283,0.19571 0.21268,0.32857 0.27182,1.20991 0.0456,0.67888 0.0376,1.02477 -0.0252,1.10053 -0.11256,0.13563 -1.5168,0.15477 -1.64909,0.0225 -0.0547,-0.0547 -0.0768,-0.48064 -0.0585,-1.12564 l 0.0295,-1.03765 -0.28109,-0.27244 c -0.2745,-0.26607 -1.15688,-0.68376 -2.0911,-0.98986 -0.25612,-0.0839 -0.5891,-0.23582 -0.73997,-0.33755 l -0.2743,-0.18497 0.18964,-0.17336 c 0.10429,-0.0953 0.61509,-0.32797 1.1351,-0.51695 1.12613,-0.40926 1.70317,-0.69155 1.9332,-0.94572 0.14416,-0.1593 0.17356,-0.33057 0.19778,-1.15215 0.0156,-0.53077 3e-5,-0.96504 -0.0347,-0.96504 -0.17604,0 -2.62049,0.27019 -2.64236,0.29207 -0.014,0.014 0.0139,0.26835 0.0621,0.5652 0.1433,0.88319 0.11879,1.115 -0.14398,1.36124 -0.28892,0.27075 -0.74588,0.50218 -1.74245,0.88249 -0.73411,0.28014 -1.07272,0.48068 -1.07272,0.63528 0,0.11433 0.49207,0.33774 1.57253,0.71396 1.9557,0.68098 2.12586,0.84309 2.28403,2.17604 0.0318,0.26838 0.0916,0.50875 0.13267,0.53417 0.10888,0.0673 0.0915,0.40896 -0.0268,0.52728 -0.0636,0.0636 -0.37962,0.1016 -0.84471,0.1016 -0.69865,0 -0.75139,-0.0126 -0.8814,-0.21105 -0.0817,-0.12469 -0.11798,-0.29195 -0.0887,-0.40876 0.0273,-0.10873 0.0134,-0.51509 -0.0308,-0.903 -0.0619,-0.54254 -0.1249,-0.75387 -0.27312,-0.91579 -0.23186,-0.2533 -1.11557,-0.67142 -2.09768,-0.99249 -0.39581,-0.1294 -0.8431,-0.31846 -0.99396,-0.42015 l -0.2743,-0.18487 0.19227,-0.18063 c 0.10575,-0.0994 0.59449,-0.33171 1.0861,-0.51637 1.06118,-0.3986 1.68193,-0.74664 1.8429,-1.0333 0.0897,-0.15965 0.10285,-0.38299 0.0559,-0.94649 l -0.0614,-0.73753 -1.32591,0.0211 c -0.72925,0.0116 -1.84026,0.002 -2.46891,-0.0213 l -1.143,-0.0423 -0.0887,0.762 c -0.0488,0.4191 -0.13104,0.8382 -0.18273,0.93134 -0.2278,0.41043 -0.83997,0.77557 -2.35216,1.40297 -0.37196,0.15432 -0.7695,0.37379 -0.88342,0.48771 l -0.20712,0.20713 0.3788,0.19251 c 0.20835,0.10589 0.77457,0.33027 1.25827,0.49864 1.0198,0.35497 1.40402,0.56996 1.47009,0.82259 0.0281,0.10726 -0.0557,0.40763 -0.2061,0.73938 -0.13934,0.3073 -0.26747,0.6542 -0.28473,0.7709 -0.0173,0.11669 -0.091,0.47887 -0.1638,0.80483 -0.0728,0.32597 -0.13308,0.71183 -0.13389,0.85747 -0.002,0.38019 -0.20046,0.52099 -0.37855,0.26872 z m 6.52074,-9.73922 c 0.0339,-0.0339 -0.0106,-0.77688 -0.0989,-1.651 l -0.16047,-1.5893 -2.03911,-0.0226 -2.03911,-0.0226 -0.15214,1.57366 c -0.0887,0.91731 -0.12076,1.60503 -0.0769,1.64888 0.13954,0.13954 4.43103,0.19879 4.5666,0.063 z m 7.68279,-0.91918 c 0.94044,-0.19024 1.72738,-0.36331 1.74877,-0.38461 0.13822,-0.13766 -0.15599,-1.6279 -0.42864,-2.17115 -0.44959,-0.89581 -0.86659,-1.10389 -2.29841,-1.14692 l -1.0795,-0.0324 v 1.98405 c 0,1.09124 0.0254,2.00946 0.0564,2.04051 0.0906,0.0906 0.2037,0.0742 2.00134,-0.28944 z m 7.84793,-2.23778 c 0.34941,-0.11714 0.6802,-0.24154 0.7351,-0.27644 0.0739,-0.047 0.041,-0.27547 -0.127,-0.88091 -0.12475,-0.44959 -0.25033,-0.84083 -0.27906,-0.86941 -0.0287,-0.0286 -0.28591,0.2116 -0.5715,0.53372 l -0.51925,0.58569 v 0.56017 c 0,0.3081 0.0284,0.56017 0.0632,0.56017 0.0348,0 0.34909,-0.0958 0.6985,-0.21299 z m -16.17105,-1.37695 c 0,-0.0363 -0.24692,-0.80451 -0.54871,-1.70721 -0.64437,-1.92739 -0.64414,-1.92553 -0.84773,-6.905178 -0.16396,-4.010567 -0.22117,-4.842635 -0.3056,-4.445 -0.0346,0.162984 -0.12302,1.725084 -0.19649,3.471334 -0.0735,1.746249 -0.17416,3.854674 -0.22378,4.685384 l -0.0902,1.51039 -0.58201,1.72811 -0.58202,1.72811 h 1.68827 c 0.92855,0 1.68827,-0.0297 1.68827,-0.0659 z m 9.17939,-1.53299 c 0.94492,-0.46518 1.28496,-1.13238 1.19161,-2.33807 -0.27947,-3.60915 -1.08231,-7.505649 -1.84663,-8.962372 -0.36435,-0.694419 -0.5002,-0.765193 -1.36523,-0.711226 -0.3898,0.02432 -0.75037,0.06995 -0.80127,0.101407 -0.10717,0.06624 -0.13579,12.081571 -0.029,12.191991 0.0349,0.0361 0.56538,0.0491 1.17881,0.0289 1.04931,-0.0346 1.14823,-0.0529 1.67174,-0.31067 z"
       id="path178" />
  </g>
</svg>
